<?xml version="1.0" encoding="UTF-8"?>
<svg width="1200pt" height="1200pt" version="1.1" viewBox="0 0 1200 1200" xmlns="http://www.w3.org/2000/svg">
 <path d="m318.74 860.63-2.8125 18.75c-1.6875 10.078 4.9688 19.641 15 21.562h3.75c9.3281 0.09375 17.344-6.7031 18.75-15.938l2.8125-18.75c1.6875-5.1562 1.0312-10.781-1.7344-15.422-2.7656-4.6875-7.4531-7.875-12.797-8.8594-5.2969-0.9375-10.828 0.46875-15.047 3.8438-4.2188 3.4219-6.75 8.4375-6.9844 13.875z"/>
 <path d="m425.63 470.63 2.8125-18.75c0.375-9.375-6.1875-17.578-15.422-19.219s-18.234 3.75-21.141 12.656l-2.8125 18.75c-1.6875 10.078 4.9688 19.641 15 21.562h3.75c8.7188-0.28125 16.078-6.4688 17.812-15z"/>
 <path d="m366.56 802.5 2.8125-18.75c0.375-9.375-6.1875-17.578-15.422-19.219s-18.234 3.75-21.141 12.656l-2.8125 18.75c-1.6875 10.078 4.9688 19.641 15 21.562h3.75c8.7188-0.28125 16.078-6.4688 17.812-15z"/>
 <path d="m410.63 553.13 2.8125-18.75c1.6875-5.1562 1.0312-10.781-1.7344-15.422-2.7656-4.6875-7.4531-7.875-12.797-8.8594-5.2969-0.9375-10.828 0.46875-15.047 3.8438-4.2188 3.4219-6.75 8.4375-6.9844 13.875l-2.8125 18.75c-1.6875 10.078 4.9688 19.641 15 21.562h3.75c8.7188-0.28125 16.078-6.4688 17.812-15z"/>
 <path d="m381.56 720 2.8125-18.75c1.6875-5.1562 1.0312-10.781-1.7344-15.422-2.7656-4.6875-7.4531-7.875-12.797-8.8594-5.2969-0.9375-10.828 0.46875-15.047 3.8438-4.2188 3.4219-6.75 8.4375-6.9844 13.875l-2.8125 18.75c-1.6875 10.078 4.9688 19.641 15 21.562h3.75c8.7188-0.28125 16.078-6.4688 17.812-15z"/>
 <path d="m396.56 636.56 2.8125-18.75c1.6875-5.1562 1.0312-10.781-1.7344-15.422-2.7656-4.6875-7.4531-7.875-12.797-8.8594-5.2969-0.9375-10.828 0.46875-15.047 3.8438-4.2188 3.4219-6.75 8.4375-6.9844 13.875l-2.8125 18.75c-1.6875 10.078 4.9688 19.641 15 21.562h3.75c8.7188-0.28125 16.078-6.4688 17.812-15z"/>
 <path d="m1074.4 374.06c-2.1562-10.312-8.5781-19.266-17.672-24.609-9.1406-5.3906-20.062-6.6562-30.141-3.5156l-240 70.312c-1.3594 14.391-4.5 28.547-9.375 42.188l260.63-76.875 124.69 615.94-276.56 90-545.63-138.74c-0.51562-9-7.3594-16.359-16.312-17.531-8.9531-1.125-17.484 4.2656-20.25 12.844v3.75l-266.26 90.938 123.74-646.87 262.5-73.125 11.25 5.625c5.0156-11.625 11.297-22.594 18.75-32.812l-13.125-6.5625c-8.3906-4.3125-18.094-5.3438-27.188-2.8125l-262.5 74.062c-13.875 3.7031-24.422 14.953-27.188 29.062l-122.81 645.94c-2.625 13.219 2.0156 26.812 12.188 35.625 9.9844 8.8125 23.906 11.672 36.562 7.5l263.44-90.938h10.312l552.19 140.63h9.375l11.25-1.875 276.56-90c18.188-5.8125 29.109-24.422 25.312-43.125z"/>
 <path d="m514.69 458.44-24.375 165.94c-1.7344 12.938 5.625 25.359 17.812 30l10.312 1.875c9.5156-0.14062 18.375-5.0625 23.438-13.125l93.75-146.26c32.719-2.5781 64.453-12.516 92.812-29.062 2.7188-1.5938 4.9688-3.8438 6.5625-6.5625 27.375-52.688 15.375-117.23-29.062-156.56l29.062-100.31c17.25-2.9531 31.969-14.156 39.375-30 4.875-12.422 4.5-26.25-0.9375-38.438-11.391-23.812-31.547-42.281-56.25-51.562-45-18.75-91.875-9.375-105 22.5-4.875 12.422-4.5 26.25 0.9375 38.438 2.0156 4.6406 4.5469 9.0469 7.5 13.125-2.4844 1.9688-4.4062 4.5469-5.625 7.5l-43.125 98.438c-54.891 6.6562-99.609 47.25-111.56 101.25-0.51562 2.4844-0.51562 5.0156 0 7.5 7.4531 33.984 26.719 64.172 54.375 85.312zm19.688 128.44 15-106.88 7.5 3.75c11.391 5.1094 23.344 8.9062 35.625 11.25zm112.5-465c3.75-9.375 27.188-14.062 56.25-2.8125 15.234 5.625 27.938 16.641 35.625 30.938 1.4531 2.9062 1.7812 6.2344 0.9375 9.375-3.75 9.375-27.188 14.062-56.25 2.8125-15.234-5.625-27.938-16.641-35.625-30.938-1.4531-2.9062-1.7812-6.2344-0.9375-9.375zm0 63.75c14.672 9.9844 31.266 16.688 48.75 19.688l-27.188 95.625c-1.7344 2.8125-2.7188 6.0469-2.8125 9.375v2.8125c-36.562 11.25-56.25-8.4375-64.688-20.625zm-84.375 119.06c15.469 30.375 46.547 49.547 80.625 49.688 14.859-0.32812 29.484-3.5156 43.125-9.375l3.75-1.875c22.125 26.812 27.188 63.844 13.125 95.625-15.938 8.4375-75 35.625-132.19 10.312s-71.25-66.562-75-78.75c8.7188-32.625 34.641-57.797 67.5-65.625z"/>
 <path d="m812.81 692.81c-2.3438-10.078-12.422-16.406-22.5-14.062s-16.406 12.422-14.062 22.5l3.75 18.75c1.8281 8.8594 9.7031 15.188 18.75 15h3.75c4.8281-1.125 9.0469-4.125 11.672-8.3438 2.6719-4.2188 3.5156-9.3281 2.3906-14.156z"/>
 <path d="m795 611.26c-2.3438-10.078-12.422-16.406-22.5-14.062s-16.406 12.422-14.062 22.5l3.75 18.75c1.8281 8.8594 9.7031 15.188 18.75 15h3.75c4.8281-1.125 9.0469-4.125 11.672-8.3438 2.6719-4.2188 3.5156-9.3281 2.3906-14.156z"/>
 <path d="m777.19 528.74c-2.3438-10.078-12.422-16.406-22.5-14.062s-16.406 12.422-14.062 22.5l3.75 18.75c1.8281 8.8594 9.7031 15.188 18.75 15h3.75c4.8281-1.125 9.0469-4.125 11.672-8.3438 2.6719-4.2188 3.5156-9.3281 2.3906-14.156z"/>
 <path d="m830.63 775.31c-2.3438-10.078-12.422-16.406-22.5-14.062s-16.406 12.422-14.062 22.5l3.75 18.75c1.8281 8.8594 9.7031 15.188 18.75 15h3.75c4.8281-1.125 9.0469-4.125 11.672-8.3438 2.6719-4.2188 3.5156-9.3281 2.3906-14.156z"/>
 <path d="m867.19 940.31c-2.3438-10.078-12.422-16.406-22.5-14.062s-16.406 12.422-14.062 22.5l3.75 18.75c1.8281 8.8594 9.7031 15.188 18.75 15h3.75c4.8281-1.125 9.0469-4.125 11.672-8.3438 2.6719-4.2188 3.5156-9.3281 2.3906-14.156z"/>
 <path d="m849.37 857.81c-2.3438-10.078-12.422-16.406-22.5-14.062s-16.406 12.422-14.062 22.5l3.75 18.75c1.8281 8.8594 9.7031 15.188 18.75 15h3.75c5.0625-1.0781 9.4219-4.2188 12.094-8.6719s3.375-9.7969 1.9688-14.766z"/>
 <path d="m848.44 1031.3 3.75 18.75c1.8281 8.8594 9.7031 15.188 18.75 15h3.75c4.8281-1.125 9.0469-4.125 11.672-8.3438 2.6719-4.2188 3.5156-9.3281 2.3906-14.156l-3.75-18.75c-2.3438-10.078-12.422-16.406-22.5-14.062s-16.406 12.422-14.062 22.5z"/>
</svg>
